<?xml version="1.0" encoding="UTF-8" standalone="no"?>
<svg width="456" height="456" viewBox="0 0 456 456" version="1.1" xmlns="http://www.w3.org/2000/svg">
  <rect x="0" y="0" width="456" height="456" rx="96" fill="#050912"/>
  <rect x="78" y="82" width="300" height="292" rx="72" fill="#0D2544"/>
  <rect x="104" y="110" width="248" height="236" rx="52" fill="#123B69"/>
  <path d="M164 176h128c16 0 29 13 29 29v66c0 16-13 29-29 29H164c-16 0-29-13-29-29v-66c0-16 13-29 29-29z" fill="#07101D"/>
  <path d="M199 166l29-28 29 28" fill="none" stroke="#FFD34D" stroke-width="18" stroke-linecap="round" stroke-linejoin="round"/>
  <rect x="167" y="208" width="122" height="18" rx="9" fill="#FFD34D"/>
  <rect x="167" y="242" width="82" height="18" rx="9" fill="#8DD7FF"/>
</svg>
